<svg width="158" height="50" viewBox="0 0 158 50" fill="none" xmlns="http://www.w3.org/2000/svg">
<path d="M4.45188 1.18122C6.02269 1.0663 7.11495 1.02866 7.72847 1.06637C8.34089 1.1049 9.03064 1.21976 9.79761 1.41106C11.7897 1.9482 13.5914 2.81061 15.2008 3.99787C16.8101 5.18624 17.8637 6.45089 18.3622 7.7916C18.7449 8.78868 18.937 9.9183 18.937 11.183C18.8985 13.4059 17.8826 15.2066 15.8906 16.5861C15.0085 17.1995 14.6062 17.6407 14.6834 17.9082C14.7211 18.2532 15.2772 18.6939 16.3503 19.2302C18.3424 20.2648 19.598 21.8457 20.1153 23.9724C20.6327 26.0991 20.374 28.3894 19.3394 30.8413C18.9559 31.7995 17.9401 32.7769 16.2929 33.7728C14.6447 34.7696 12.9205 35.4971 11.1195 35.957C9.97013 36.2644 9.10785 36.6279 8.533 37.049C7.84324 37.4713 6.86604 37.7962 5.60143 38.0263C4.71927 38.2184 4.09692 38.3048 3.7334 38.285C3.36863 38.2661 2.91878 38.1223 2.38246 37.8537C1.53925 37.394 1.01204 36.6953 0.801961 35.7558C0.590779 34.8173 0.773112 33.9263 1.34796 33.0829C1.57779 32.7379 1.71164 32.3743 1.75031 31.9907C1.78788 31.6081 1.75031 30.9758 1.63526 30.0941C1.48181 28.7146 1.40542 25.4957 1.40542 20.4374C1.40542 15.3791 1.48181 12.0451 1.63526 10.4357C1.75031 9.28604 1.76923 8.50098 1.69285 8.07903C1.6155 7.65763 1.3282 6.96788 0.830556 6.00976C0.1785 4.66877 -0.0890245 3.61532 0.0258898 2.84808C0.140804 2.19713 0.408605 1.79461 0.830556 1.64116C1.25195 1.48854 2.45883 1.33508 4.45188 1.18122ZM10.8897 7.56176C9.43298 6.1444 8.39835 5.81854 7.7858 6.58469C7.63221 6.77681 7.36355 9.3635 6.9811 14.3445C6.90361 14.9578 7.08608 15.3218 7.52709 15.4367C7.96714 15.5516 8.70538 15.4178 9.74002 15.0342C11.847 14.2296 12.9015 13.0037 12.9015 11.3554C12.9015 10.7042 12.7578 10.1197 12.4705 9.60231C12.1829 9.08506 11.6559 8.40497 10.8897 7.56176ZM12.959 22.6792C12.077 22.2578 11.0809 21.9991 9.96999 21.9031C8.858 21.808 8.13054 21.932 7.7858 22.2767C7.51716 22.5454 7.38331 24.1162 7.38331 26.9903C7.38331 29.5579 7.50735 31.0523 7.75693 31.4737C8.00582 31.896 8.76284 31.9145 10.0275 31.5312C11.062 31.1862 12.1731 30.4775 13.3613 29.4045C14.5487 28.3321 15.2385 27.4122 15.4305 26.6453C15.5831 25.8791 15.4494 25.1508 15.0283 24.4611C14.6062 23.7712 13.9164 23.1774 12.959 22.6792Z" fill="#606060"/>
<path d="M46.9873 2.906C47.255 2.1784 47.581 1.8712 47.9645 1.98611C48.3472 2.10103 48.6345 2.58075 48.8266 3.42314C48.9792 4.3053 48.9991 5.01397 48.8842 5.54987C48.7691 6.04834 48.5966 8.00281 48.3668 11.4128C47.9446 17.8506 47.6573 21.8367 47.5047 23.3689C47.3511 24.902 47.0637 26.3775 46.6424 27.7948C45.6455 31.206 44.4295 33.6676 42.9923 35.181C41.5554 36.6955 39.5148 37.7014 36.8707 38.1989C34.954 38.5436 33.2782 38.4576 31.8412 37.9402C30.4042 37.4228 28.9761 36.3794 27.5589 34.8074C24.9525 31.9333 23.1995 28.3221 22.2995 23.9725C21.3985 19.6237 21.2361 14.0956 21.8108 7.38945C21.8872 6.6233 21.9447 6.03853 21.9833 5.63633C22.0209 5.23385 22.0982 4.85124 22.2132 4.4866C22.3281 4.12294 22.4044 3.88321 22.4431 3.7683C22.4807 3.65338 22.6245 3.53819 22.8742 3.42327C23.1231 3.30836 23.3144 3.25089 23.4489 3.25089C23.5827 3.25089 23.8892 3.24206 24.3686 3.22203C24.8474 3.20338 25.2399 3.17451 25.5471 3.13597C26.2745 3.05959 26.7253 3.06941 26.8977 3.16457C27.0701 3.26084 27.1941 3.53813 27.2713 3.99807C27.4239 4.72636 27.5012 5.45479 27.5012 6.18226C27.5012 6.94923 27.7114 7.77283 28.1334 8.65389C28.4011 9.22874 28.5736 9.88085 28.6509 10.6083C28.7272 11.3366 28.7658 12.8123 28.7658 15.0343C28.7658 20.1698 29.3784 24.0785 30.6051 26.7602C31.9846 29.8266 33.8618 31.3589 36.2381 31.3589C38.039 31.3589 39.3709 29.7781 40.233 26.6167C41.0953 23.4551 41.7178 17.9469 42.1011 10.0909C42.1775 8.86511 42.2537 7.88777 42.3312 7.15934C42.4076 6.43201 42.5035 5.83756 42.6185 5.37763C42.7334 4.9177 42.8672 4.61146 43.0208 4.45801C43.1734 4.30539 43.3657 4.24793 43.5956 4.28536C43.7869 4.32417 44.3616 4.26671 45.3201 4.11298C45.8562 3.99807 46.2298 3.86429 46.4409 3.71084C46.6514 3.55794 46.8337 3.28928 46.9873 2.906Z" fill="#606060"/>
<path d="M51.6422 1.64148C52.4082 1.45019 55.8572 1.35392 61.9886 1.35392C68.0816 1.31649 72.2203 1.46912 74.4046 1.81386C76.4351 2.15888 77.6037 2.44619 77.9109 2.67602C78.1785 2.86842 78.1408 3.48068 77.7958 4.51546C77.5274 5.54996 77.5085 6.4121 77.7383 7.102C77.9683 7.79176 78.0447 8.27142 77.9683 8.53896C77.891 8.73136 76.1478 8.82652 72.7375 8.82652C69.3651 8.78882 67.5643 8.92253 67.3345 9.22874C67.1047 9.49738 66.9322 12.5628 66.8171 18.4257C66.6636 26.5501 66.4723 31.8761 66.2424 34.4054C66.0124 36.9344 65.5327 38.6015 64.8054 39.4062C64.4605 39.8281 64.1246 40.077 63.7995 40.1534C63.4735 40.2306 62.6974 40.2683 61.4716 40.2683C60.2833 40.2683 59.536 40.2306 59.23 40.1534C58.9227 40.077 58.674 39.8469 58.4827 39.4637C58.0992 38.7361 58.1953 34.6163 58.77 27.1053C59 23.5037 59.1914 20.2274 59.3449 17.2759C59.5747 13.4823 59.7662 11.3555 59.9198 10.8958C60.0724 10.3595 59.8711 9.99559 59.3162 9.8036C58.7602 9.61231 57.4668 9.49738 55.4361 9.45885C53.2133 9.34365 51.8338 9.16243 51.2976 8.91258C50.7604 8.66383 50.5693 8.11786 50.7227 7.27465C50.8753 6.54704 50.7802 5.70356 50.4355 4.74529C50.0904 3.86424 50.0132 3.18443 50.2055 2.70488C50.3964 2.22617 50.8751 1.87131 51.6422 1.64148Z" fill="#606060"/>
<path d="M92.5106 0.664117C93.5453 0.28153 94.2153 0.0802725 94.5223 0.0606597C94.8287 0.0417375 95.2121 0.224209 95.672 0.606658C96.0168 0.875298 96.2082 1.14376 96.2468 1.41129C96.2845 1.67993 96.2082 2.35096 96.0168 3.42318C95.787 4.72646 95.4796 5.6174 95.0972 6.09598C94.7136 6.57566 93.9663 7.00676 92.8555 7.38949C91.8209 7.73423 90.6037 8.54899 89.2054 9.83252C87.806 11.1169 86.82 12.3526 86.2452 13.5399C85.8616 14.2682 85.6416 14.862 85.5842 15.3219C85.5266 15.7816 85.5357 16.5862 85.6129 17.7361C85.8427 20.7636 86.2452 23.1303 86.8199 24.8348C87.3947 26.5406 88.3144 28.0636 89.5791 29.4046C90.5365 30.4777 91.0735 31.2638 91.1885 31.7613C91.3411 32.2984 91.7246 32.7008 92.338 32.9684C93.9475 33.6204 94.7521 34.7501 94.7521 36.3596C94.7521 37.318 94.6748 37.893 94.5222 38.0841C94.4073 38.314 93.6403 38.3429 92.2231 38.1702C90.8049 37.9978 89.8663 37.7779 89.4064 37.5093C88.1795 36.8581 86.6565 35.3447 84.8368 32.9684C83.0162 30.5929 81.8191 28.5424 81.2442 26.8179C79.9409 23.1391 79.2898 20.3226 79.2898 18.3683C79.2898 16.6826 79.6923 14.7857 80.497 12.6778C81.3017 10.5706 82.374 8.61651 83.7158 6.81476C84.3671 5.89517 85.6702 4.74551 87.6247 3.36585C89.5791 1.98619 91.2073 1.08634 92.5106 0.664117Z" fill="#606060"/>
<path d="M97.5107 1.41109C97.702 1.18127 98.4878 1.06641 99.8674 1.06641C100.902 1.06641 101.534 1.1238 101.764 1.23872C101.994 1.35363 102.3 1.73722 102.684 2.38844C103.181 3.30803 103.469 4.68754 103.546 6.52713C103.622 8.36631 103.871 9.74603 104.293 10.6656C104.715 11.5478 104.926 12.2562 104.926 12.7924C104.926 13.4444 105.127 13.8656 105.529 14.0569C105.931 14.2491 106.765 14.3442 108.029 14.3442C109.6 14.3442 110.51 14.2205 110.76 13.9706C111.009 13.7219 111.134 12.16 111.134 9.28592C111.134 6.94896 111.22 5.37731 111.392 4.57264C111.565 3.76796 111.938 3.17421 112.513 2.79066C112.934 2.52298 113.835 2.23567 115.215 1.9285C116.594 1.62229 117.36 1.5459 117.514 1.69866C117.666 1.81358 117.724 2.23584 117.686 2.96331C117.686 3.15543 117.676 3.9601 117.658 5.37747C117.638 6.79567 117.6 8.89352 117.543 11.6715C117.485 14.4503 117.437 16.9508 117.399 19.1728C117.322 26.109 117.235 30.3915 117.14 32.0198C117.044 33.6489 116.862 34.5973 116.594 34.865C116.326 35.1337 116.115 35.2674 115.962 35.2674C115.808 35.2674 115.502 35.1337 115.042 34.865C114.429 34.5203 113.796 34.3864 113.145 34.4628C112.686 34.5777 112.388 34.54 112.255 34.3479C112.12 34.1566 111.918 33.5432 111.651 32.5084C111.306 31.0911 111.134 28.8683 111.134 25.8407C111.134 22.814 110.999 21.1849 110.731 20.9548C110.463 20.725 109.543 20.6297 107.972 20.6676C106.401 20.7061 105.519 20.8399 105.328 21.0697C105.136 21.2998 104.983 22.3344 104.868 24.1739C104.523 29.3857 103.834 33.1983 102.799 35.6123C102.224 36.9541 101.802 36.9344 101.534 35.5549C101.419 34.9425 101.094 34.4055 100.557 33.9455C100.02 33.4859 99.6177 32.6809 99.3502 31.5314C99.0818 30.3817 98.8705 28.4086 98.7178 25.6109C98.4495 21.0123 98.2383 17.8132 98.0857 16.0117C97.4334 6.66178 97.2421 1.79479 97.5107 1.41109Z" fill="#606060"/>
<path d="M133.78 0.20435C133.895 0.0894356 134.508 0.0228584 135.62 0.00310751C136.731 -0.0158147 137.535 0.0517294 138.034 0.20435C138.455 0.319264 138.695 0.511402 138.752 0.779213C138.81 1.04758 138.666 1.25885 138.321 1.4112C138.014 1.52639 137.784 2.02462 137.631 2.90595C137.439 4.05537 137.008 4.91751 136.338 5.49249C135.667 6.06734 134.623 6.48954 133.205 6.75707C131.557 7.02543 130.063 7.23677 128.722 7.38939C127.227 7.54284 126.288 7.87794 125.905 8.39534C125.522 8.91245 125.368 10.1482 125.445 12.1027C125.483 13.7895 125.618 14.7954 125.848 15.1206C126.078 15.4464 126.805 15.6863 128.032 15.8389C128.989 15.9538 130.034 16.4335 131.165 17.2759C132.295 18.1194 132.86 18.8278 132.86 19.4026C132.86 19.9398 132.639 20.3321 132.199 20.5809C131.758 20.8307 130.618 21.2044 128.779 21.7017C126.748 22.2389 125.55 22.6699 125.186 22.9952C124.822 23.321 124.755 24.0398 124.985 25.1505C125.253 26.2238 125.388 27.201 125.388 28.0821C125.388 28.9643 125.569 29.5191 125.934 29.749C126.298 29.9791 127.016 29.9791 128.089 29.749C129.354 29.4813 130.733 29.2893 132.228 29.1744L134.7 29.0017L135.734 30.4961C136.232 31.1485 136.519 31.617 136.596 31.9046C136.673 32.1918 136.634 32.6229 136.481 33.1977C136.289 33.926 135.983 34.4435 135.562 34.7496C135.14 35.0569 134.392 35.2868 133.32 35.4394C132.056 35.6318 130.58 35.9379 128.894 36.359C127.207 36.7812 126.115 37.1262 125.618 37.3937C125.081 37.701 124.401 37.7773 123.577 37.6236C122.753 37.471 122.13 37.145 121.709 36.6466C121.057 35.919 120.664 35.0757 120.531 34.1172C120.396 33.1598 120.31 30.8221 120.272 27.1048C120.234 22.8135 120.176 19.4409 120.1 16.9882C120.1 14.7662 120.176 12.792 120.33 11.0677C120.444 9.53545 120.473 8.56723 120.416 8.16476C120.358 7.76256 120.119 7.25513 119.697 6.64175C118.778 5.30076 118.566 4.01726 119.065 2.79036C119.218 2.3307 119.649 1.99559 120.358 1.78468C121.067 1.57433 122.303 1.41079 124.066 1.29587C130.311 0.798925 133.55 0.434179 133.78 0.20435Z" fill="#606060"/>
<path d="M141.022 1.41102C141.712 1.10481 143.33 1.1526 145.879 1.5548C148.427 1.95728 150.142 2.42692 151.024 2.96323C151.636 3.34651 152.346 3.96913 153.15 4.83127C153.955 5.6934 154.51 6.4507 154.817 7.10165C155.2 7.79141 155.66 8.8548 156.197 10.2919C156.733 11.7289 157.059 12.7349 157.174 13.3097C157.326 13.9995 157.222 15.034 156.858 16.4137C156.493 17.7932 156.043 18.8853 155.507 19.6903C154.932 20.5335 154.165 21.2809 153.208 21.9319C152.25 22.6602 151.771 23.1388 151.771 23.3689C151.771 23.6373 152.652 24.5958 154.415 26.243C156.14 27.9673 157.002 28.9256 157.002 29.1171C157.002 29.2706 156.657 29.6154 155.967 30.1517C155.469 30.5352 155.171 30.8414 155.076 31.0712C154.98 31.3013 154.951 31.6658 154.99 32.1635C155.066 32.8918 154.97 33.2554 154.703 33.2554C154.28 33.2939 153.151 32.4318 151.311 30.6689C149.472 28.9065 148.399 28.0821 148.092 28.1971C147.862 28.2746 147.67 28.6956 147.518 29.4617C147.364 30.2287 147.153 31.8759 146.885 34.4051C146.693 36.1294 146.425 37.2414 146.08 37.7389C145.736 38.276 145.141 38.7448 144.299 39.1473C143.455 39.5495 142.612 39.7704 141.769 39.8081L140.39 39.8656L140.16 38.3712C140.045 37.2988 140.064 36.3981 140.218 35.6697C140.715 33.1026 141.041 28.0059 141.195 20.3799C141.31 16.5097 141.3 13.7409 141.166 12.0739C141.031 10.4068 140.715 8.88366 140.218 7.50413C139.91 6.73799 139.91 6.0097 140.218 5.31994C140.485 4.66871 140.562 3.90257 140.447 3.02083C140.409 2.48451 140.419 2.12082 140.476 1.92856C140.533 1.73727 140.715 1.56488 141.022 1.41102ZM149.759 8.88376C149.069 8.15616 148.647 8.0027 148.495 8.42382C148.302 8.88375 148.207 10.7042 148.207 13.8846C148.207 17.5634 148.36 19.4601 148.667 19.575C148.858 19.6525 149.222 19.4026 149.759 18.8277C150.679 17.7932 151.139 16.146 151.139 13.8846C151.139 11.624 150.679 9.9568 149.759 8.88376Z" fill="#606060"/>
<path d="M4.45201 1.34192C6.02283 1.22701 7.11495 1.1893 7.72847 1.227C8.34102 1.26554 9.03078 1.38046 9.79775 1.57176C11.7897 2.1089 13.5914 2.97117 15.2008 4.15857C16.8103 5.3468 17.8639 6.61145 18.3623 7.9523C18.745 8.94924 18.937 10.079 18.937 11.3436C18.8985 13.5666 17.8828 15.3673 15.8906 16.7468C15.0087 17.3602 14.6062 17.8012 14.6835 18.0688C14.7211 18.4137 15.2772 18.8546 16.3505 19.3908C18.3424 20.4255 19.5982 22.0064 20.1154 24.133C20.6327 26.2597 20.374 28.55 19.3395 31.0018C18.9559 31.9601 17.9402 32.9374 16.293 33.9334C14.6447 34.9303 12.9205 35.6578 11.1197 36.1176C9.97013 36.4249 9.10799 36.7884 8.533 37.2097C7.84324 37.6319 6.86618 37.9569 5.60143 38.1869C4.71941 38.3791 4.09692 38.4653 3.7334 38.4456C3.36863 38.4267 2.91877 38.2829 2.3826 38.0144C1.53925 37.5546 1.01204 36.8558 0.801961 35.9165C0.590916 34.9779 0.77325 34.087 1.34796 33.2435C1.57793 32.8986 1.71177 32.5349 1.75044 32.1514C1.78801 31.7688 1.75044 31.1365 1.63539 30.2546C1.4818 28.8751 1.40542 25.6562 1.40542 20.5979C1.40542 15.5396 1.4818 12.2057 1.63539 10.5962C1.75044 9.44668 1.76936 8.66162 1.69298 8.23953C1.6155 7.81827 1.32819 7.12852 0.830691 6.17025C0.178497 4.8294 -0.0890248 3.77589 0.0258895 3.00878C0.140942 2.35769 0.408602 1.95532 0.830691 1.80173C1.25195 1.64911 2.45896 1.49565 4.45201 1.34192ZM10.8897 7.72233C9.43298 6.3051 8.39849 5.97911 7.78579 6.74525C7.63235 6.93751 7.36354 9.52407 6.98109 14.5052C6.90375 15.1185 7.08622 15.4823 7.52709 15.5972C7.96728 15.7121 8.70537 15.5784 9.74015 15.1949C11.847 14.3903 12.9015 13.1643 12.9015 11.5161C12.9015 10.8649 12.7578 10.2803 12.4705 9.76301C12.1832 9.24562 11.6559 8.56568 10.8897 7.72233ZM12.9591 22.8397C12.0772 22.4185 11.0811 22.1598 9.97013 22.0638C8.85814 21.9687 8.13081 22.0926 7.78593 22.4374C7.51743 22.7059 7.38358 24.2768 7.38358 27.1509C7.38358 29.7186 7.50748 31.213 7.7572 31.6343C8.00609 32.0565 8.76298 32.0752 10.0276 31.6918C11.0622 31.3469 12.1732 30.6382 13.3616 29.565C14.5489 28.4927 15.2386 27.5729 15.4307 26.806C15.5834 26.0398 15.4497 25.3115 15.0284 24.6218C14.6062 23.9319 13.9164 23.3381 12.9591 22.8397Z" fill="white"/>
<path d="M46.9872 3.06652C47.2549 2.33891 47.581 2.03185 47.9645 2.14677C48.3471 2.26168 48.6344 2.74134 48.8267 3.58372C48.9793 4.46574 48.999 5.17442 48.8841 5.71046C48.7692 6.20879 48.5967 8.16333 48.3667 11.5735C47.9447 18.0113 47.6572 21.9972 47.5046 23.5294C47.3511 25.0625 47.0636 26.538 46.6425 27.9554C45.6454 31.3665 44.4294 33.8283 42.9923 35.3417C41.5553 36.856 39.5147 37.8619 36.8707 38.3594C34.9541 38.7043 33.2781 38.6181 31.8412 38.1008C30.4042 37.5835 28.9762 36.5398 27.559 34.968C24.9525 32.0939 23.1994 28.4827 22.2994 24.133C21.3986 19.7843 21.2361 14.2563 21.8109 7.54996C21.8873 6.78382 21.9447 6.19912 21.9833 5.79678C22.021 5.39444 22.0982 5.01175 22.2131 4.64726C22.3281 4.28345 22.4045 4.04366 22.4432 3.92875C22.4808 3.81383 22.6246 3.69877 22.8743 3.58385C23.123 3.46894 23.3143 3.41148 23.449 3.41148C23.5828 3.41148 23.8892 3.4025 24.3687 3.38261C24.8473 3.36383 25.2398 3.3351 25.547 3.29642C26.2746 3.22004 26.7253 3.22999 26.8976 3.32515C27.0701 3.42128 27.194 3.69878 27.2713 4.15872C27.4239 4.88701 27.5012 5.61544 27.5012 6.34291C27.5012 7.10988 27.7114 7.93348 28.1335 8.81454C28.4012 9.38939 28.5737 10.0414 28.6508 10.7689C28.7272 11.4972 28.7657 12.9729 28.7657 15.195C28.7657 20.3305 29.3784 24.2391 30.6051 26.9209C31.9847 29.9871 33.8617 31.5194 36.2382 31.5194C38.039 31.5194 39.3708 29.9386 40.2331 26.7772C41.0954 23.6157 41.7177 18.1074 42.1011 10.2516C42.1775 9.02562 42.2537 8.04843 42.3311 7.31999C42.4075 6.59252 42.5035 5.99808 42.6184 5.53815C42.7334 5.07835 42.8673 4.77198 43.0209 4.61853C43.1735 4.46591 43.3656 4.40845 43.5957 4.44601C43.787 4.48469 44.3617 4.42722 45.32 4.27364C45.8563 4.15872 46.2299 4.02474 46.4408 3.87129C46.6513 3.71839 46.8338 3.44993 46.9872 3.06652Z" fill="white"/>
<path d="M51.6422 1.80178C52.4082 1.61049 55.8571 1.51435 61.9887 1.51435C68.0815 1.47678 72.2202 1.62942 74.4046 1.9743C76.4352 2.31918 77.6036 2.60649 77.9109 2.83646C78.1786 3.02872 78.1407 3.64112 77.7959 4.67576C77.5274 5.7104 77.5084 6.57254 77.7384 7.26244C77.9684 7.95234 78.0448 8.43186 77.9684 8.6994C77.891 8.89166 76.1477 8.98683 72.7376 8.98683C69.3651 8.94912 67.5644 9.08283 67.3344 9.38918C67.1046 9.65768 66.9322 12.7231 66.8172 18.586C66.6636 26.7106 66.4723 32.0365 66.2424 34.5656C66.0125 37.0948 65.5328 38.7618 64.8055 39.5664C64.4605 39.9885 64.1245 40.2373 63.7995 40.3137C63.4734 40.3909 62.6975 40.4286 61.4716 40.4286C60.2833 40.4286 59.5361 40.3909 59.2299 40.3137C58.9227 40.2373 58.674 40.0073 58.4827 39.6239C58.0992 38.8963 58.1954 34.7766 58.7701 27.2655C59.0001 23.6641 59.1914 20.3876 59.3448 17.4363C59.5748 13.6426 59.7662 11.5159 59.9197 11.0561C60.0723 10.5198 59.8711 10.156 59.3162 9.9639C58.7603 9.77261 57.4668 9.65768 55.4362 9.61915C53.2133 9.5041 51.8338 9.32273 51.2975 9.07302C50.7604 8.82426 50.5692 8.27816 50.7228 7.43495C50.8754 6.70735 50.7803 5.864 50.4354 4.90573C50.0905 4.02454 50.0132 3.34473 50.2056 2.86519C50.3964 2.38661 50.8751 2.03189 51.6422 1.80178Z" fill="white"/>
<path d="M92.5106 0.824451C93.5451 0.441863 94.2153 0.240673 94.5223 0.221061C94.8287 0.202138 95.2121 0.384542 95.6719 0.766991C96.0168 1.03549 96.2082 1.30416 96.2468 1.57169C96.2845 1.84019 96.2082 2.51116 96.0168 3.58351C95.7868 4.88679 95.4796 5.77766 95.097 6.25638C94.7136 6.73606 93.9663 7.16716 92.8554 7.54975C91.8209 7.89463 90.6037 8.70925 89.2054 9.99278C87.806 11.2771 86.8201 12.5129 86.2451 13.7003C85.8617 14.4286 85.6416 15.0222 85.5842 15.4821C85.5266 15.9419 85.5355 16.7466 85.6127 17.8963C85.8427 20.924 86.245 23.2906 86.8199 24.9951C87.3947 26.7007 88.3143 28.224 89.5791 29.5648C90.5365 30.6381 91.0735 31.424 91.1885 31.9215C91.3411 32.4587 91.7246 32.861 92.338 33.1285C93.9475 33.7806 94.7521 34.9104 94.7521 36.5199C94.7521 37.4782 94.6748 38.0531 94.5222 38.2443C94.4071 38.4742 93.6402 38.503 92.2229 38.3305C90.8047 38.1581 89.8662 37.9381 89.4064 37.6696C88.1795 37.0183 86.6563 35.505 84.8368 33.1285C83.0161 30.753 81.8189 28.7025 81.2441 26.9781C79.9408 23.2994 79.2898 20.4828 79.2898 18.5285C79.2898 16.8427 79.6922 14.9458 80.4968 12.8378C81.3015 10.7308 82.374 8.77664 83.7158 6.97489C84.3671 6.0553 85.6701 4.90571 87.6246 3.52605C89.5791 2.14639 91.2075 1.24668 92.5106 0.824451Z" fill="white"/>
<path d="M97.5107 1.57181C97.702 1.34198 98.4878 1.22705 99.8674 1.22705C100.902 1.22705 101.534 1.28451 101.764 1.39943C101.994 1.51434 102.301 1.89793 102.684 2.54902C103.182 3.46875 103.469 4.84811 103.546 6.68771C103.622 8.52703 103.871 9.90653 104.293 10.8263C104.715 11.7083 104.926 12.4168 104.926 12.953C104.926 13.6051 105.127 14.0264 105.529 14.2175C105.931 14.4098 106.765 14.5049 108.03 14.5049C109.6 14.5049 110.51 14.381 110.76 14.1313C111.009 13.8824 111.134 12.3207 111.134 9.44663C111.134 7.10967 111.22 5.53789 111.392 4.73321C111.565 3.92854 111.938 3.33492 112.513 2.95137C112.934 2.6837 113.835 2.39625 115.215 2.08921C116.594 1.78286 117.36 1.70648 117.514 1.85924C117.667 1.97429 117.724 2.39635 117.686 3.12381C117.686 3.31608 117.676 4.12075 117.658 5.53798C117.638 6.95618 117.6 9.05423 117.543 11.8322C117.485 14.611 117.437 17.1115 117.399 19.3334C117.322 26.2697 117.235 30.552 117.14 32.1803C117.044 33.8095 116.862 34.758 116.594 35.0257C116.326 35.2942 116.115 35.428 115.962 35.428C115.808 35.428 115.502 35.2942 115.042 35.0257C114.429 34.6808 113.796 34.5469 113.146 34.6233C112.686 34.7382 112.389 34.7007 112.255 34.5085C112.12 34.3172 111.919 33.7037 111.651 32.6691C111.306 31.2517 111.134 29.029 111.134 26.0015C111.134 22.9747 110.999 21.3455 110.731 21.1155C110.463 20.8856 109.543 20.7904 107.972 20.8281C106.401 20.8668 105.52 21.0006 105.328 21.2304C105.136 21.4604 104.983 22.4951 104.868 24.3345C104.523 29.5463 103.834 33.359 102.799 35.773C102.224 37.1149 101.802 37.0951 101.534 35.7156C101.419 35.103 101.094 34.566 100.557 34.1062C100.02 33.6465 99.6178 32.8416 99.3503 31.6921C99.0818 30.5425 98.8706 28.5693 98.718 25.7716C98.4495 21.1731 98.2385 17.974 98.0858 16.1724C97.4334 6.82236 97.2421 1.9555 97.5107 1.57181Z" fill="white"/>
<path d="M133.78 0.364864C133.895 0.24995 134.508 0.183507 135.619 0.163757C136.731 0.144834 137.535 0.212244 138.034 0.364864C138.455 0.479778 138.695 0.671987 138.752 0.93966C138.809 1.20816 138.666 1.41936 138.321 1.57185C138.014 1.6869 137.784 2.18527 137.631 3.06646C137.439 4.21602 137.008 5.07809 136.338 5.65308C135.667 6.22779 134.623 6.65005 133.205 6.91759C131.557 7.18609 130.063 7.39729 128.722 7.54991C127.227 7.7035 126.288 8.03839 125.905 8.55578C125.522 9.07304 125.368 10.3088 125.445 12.2633C125.483 13.95 125.618 14.9559 125.848 15.281C126.078 15.607 126.805 15.8469 128.032 15.9995C128.989 16.1144 130.034 16.5942 131.165 17.4366C132.294 18.2799 132.86 18.9884 132.86 19.5633C132.86 20.1004 132.639 20.4928 132.199 20.7415C131.758 20.9913 130.619 21.3649 128.779 21.8624C126.747 22.3995 125.55 22.8306 125.186 23.1557C124.822 23.4817 124.755 24.2003 124.985 25.3112C125.253 26.3845 125.388 27.3616 125.388 28.2427C125.388 29.1248 125.569 29.6797 125.934 29.9095C126.298 30.1395 127.016 30.1395 128.089 29.9095C129.354 29.6419 130.733 29.4498 132.228 29.3349L134.7 29.1624L135.734 30.6568C136.232 31.309 136.519 31.7776 136.596 32.065C136.673 32.3524 136.634 32.7835 136.481 33.3584C136.289 34.0867 135.983 34.604 135.562 34.9103C135.14 35.2174 134.392 35.4474 133.32 35.6C132.056 35.7923 130.58 36.0983 128.894 36.5196C127.207 36.9418 126.115 37.2867 125.618 37.5543C125.081 37.8616 124.4 37.9378 123.577 37.7842C122.753 37.6316 122.13 37.3055 121.709 36.807C121.057 36.0795 120.664 35.2362 120.531 34.2778C120.396 33.3204 120.31 30.9826 120.272 27.2653C120.233 22.9741 120.176 19.6016 120.1 17.1487C120.1 14.9268 120.176 12.9527 120.329 11.2282C120.444 9.69596 120.473 8.72774 120.416 8.32541C120.358 7.92307 120.119 7.41565 119.697 6.80226C118.778 5.46127 118.566 4.17784 119.065 2.95094C119.218 2.49114 119.649 2.1561 120.358 1.9452C121.067 1.73498 122.303 1.57144 124.066 1.45652C130.312 0.959436 133.55 0.594831 133.78 0.364864Z" fill="white"/>
<path d="M141.022 1.57171C141.712 1.2655 143.331 1.31315 145.879 1.71549C148.427 2.11783 150.142 2.5874 151.024 3.12372C151.637 3.50713 152.346 4.12969 153.151 4.99182C153.955 5.85395 154.51 6.61125 154.817 7.2622C155.2 7.95197 155.66 9.01529 156.197 10.4524C156.733 11.8894 157.059 12.8955 157.174 13.4702C157.327 14.1599 157.222 15.1946 156.858 16.5743C156.493 17.9536 156.044 19.0459 155.507 19.8507C154.932 20.6939 154.165 21.4413 153.208 22.0924C152.25 22.8207 151.771 23.2994 151.771 23.5293C151.771 23.7978 152.652 24.7562 154.415 26.4034C156.14 28.1277 157.002 29.0861 157.002 29.2775C157.002 29.431 156.657 29.7758 155.967 30.312C155.469 30.6956 155.172 31.0018 155.076 31.2318C154.98 31.4617 154.952 31.8263 154.99 32.3238C155.067 33.0521 154.97 33.416 154.703 33.416C154.281 33.4545 153.151 32.5924 151.311 30.8293C149.472 29.067 148.399 28.2426 148.092 28.3575C147.863 28.4349 147.67 28.856 147.518 29.622C147.364 30.3891 147.153 32.0361 146.885 34.5654C146.693 36.2898 146.426 37.4016 146.081 37.8993C145.736 38.4364 145.141 38.9052 144.299 39.3075C143.456 39.7098 142.612 39.9308 141.77 39.9686L140.39 40.026L140.16 38.5316C140.045 37.4591 140.064 36.5584 140.218 35.83C140.715 33.2631 141.041 28.1662 141.195 20.5402C141.31 16.67 141.3 13.9011 141.166 12.2342C141.031 10.5672 140.715 9.04388 140.218 7.66435C139.911 6.89821 139.911 6.16992 140.218 5.48016C140.485 4.82907 140.563 4.06293 140.448 3.18104C140.409 2.64487 140.419 2.2811 140.476 2.08898C140.534 1.89796 140.715 1.72543 141.022 1.57171ZM149.759 9.04432C149.07 8.31671 148.647 8.16325 148.495 8.58451C148.303 9.04431 148.207 10.8649 148.207 14.0452C148.207 17.7239 148.36 19.6207 148.667 19.7357C148.859 19.813 149.222 19.5633 149.759 18.9884C150.679 17.9538 151.139 16.3066 151.139 14.0452C151.139 11.7846 150.679 10.1175 149.759 9.04432Z" fill="white"/>
<path d="M87.2906 49.8999H86.1866V46.9593C86.1866 46.471 86.1064 46.113 85.9458 45.8855C85.7853 45.6581 85.551 45.5442 85.2432 45.5442C84.9287 45.5442 84.6426 45.6595 84.3852 45.8905C84.1274 46.1213 83.9419 46.4208 83.8282 46.7886V49.8999H82.7242V46.9593C82.7242 46.4643 82.6439 46.1046 82.4833 45.8803C82.3228 45.6563 82.0919 45.5441 81.7908 45.5441C81.4763 45.5441 81.1886 45.6579 80.9277 45.8853C80.6667 46.1128 80.4793 46.4107 80.3657 46.7786V49.8999H79.2617V44.6508H80.2654V45.7047C80.4728 45.3369 80.7455 45.054 81.0834 44.8567C81.4211 44.6593 81.8075 44.5605 82.2426 44.5605C82.6774 44.5605 83.0204 44.6744 83.2713 44.9019C83.5221 45.1293 83.6777 45.4136 83.7379 45.7549C83.9588 45.3669 84.2363 45.0709 84.571 44.8666C84.9055 44.6626 85.2869 44.5605 85.7152 44.5605C86.0229 44.5605 86.2786 44.6191 86.4829 44.7361C86.6869 44.8532 86.8492 45.0089 86.9696 45.2028C87.0901 45.3968 87.1737 45.6227 87.2205 45.8802C87.2672 46.1379 87.2908 46.4105 87.2908 46.6982L87.2906 49.8999Z" fill="white"/>
<path d="M91.817 50.0003C91.4087 50.0003 91.0373 49.9283 90.7029 49.7844C90.3683 49.6406 90.0824 49.4449 89.8449 49.1973C89.6072 48.9499 89.4233 48.6621 89.2929 48.3342C89.1625 48.0064 89.0972 47.6584 89.0972 47.2905C89.0972 46.9225 89.1625 46.5729 89.2929 46.2416C89.4233 45.9105 89.6072 45.6194 89.8449 45.3686C90.0824 45.1176 90.3683 44.9203 90.7029 44.7763C91.0374 44.6325 91.4122 44.5605 91.8271 44.5605C92.2351 44.5605 92.6049 44.6342 92.936 44.7814C93.2672 44.9285 93.5498 45.1242 93.7842 45.3686C94.0183 45.6129 94.1971 45.8971 94.3212 46.2215C94.4449 46.5463 94.5068 46.8857 94.5068 47.2403C94.5068 47.3205 94.5035 47.3959 94.4969 47.4662C94.4901 47.5365 94.4833 47.5952 94.4767 47.6417H90.2716C90.2917 47.8759 90.3469 48.0868 90.4372 48.274C90.5274 48.4612 90.6445 48.6236 90.7884 48.7607C90.9322 48.8979 91.0962 49.0032 91.2803 49.0768C91.4643 49.1505 91.6566 49.1872 91.8573 49.1872C92.0044 49.1872 92.15 49.1689 92.2939 49.1321C92.4377 49.0954 92.5699 49.0418 92.6903 48.9715C92.8108 48.9012 92.9176 48.816 93.0114 48.7156C93.1051 48.6151 93.1787 48.5048 93.2323 48.3844L94.1758 48.6553C93.995 49.0502 93.6956 49.373 93.2775 49.624C92.859 49.8749 92.3722 50.0003 91.817 50.0003ZM93.4128 46.8792C93.3927 46.6583 93.3375 46.4543 93.2472 46.2669C93.1569 46.0797 93.0416 45.9206 92.9009 45.7902C92.7603 45.6597 92.5964 45.5578 92.4091 45.484C92.2218 45.4105 92.0243 45.3736 91.817 45.3736C91.6095 45.3736 91.4138 45.4105 91.2298 45.484C91.0457 45.5578 90.8836 45.6595 90.7431 45.7902C90.6025 45.9206 90.4887 46.0797 90.4018 46.2669C90.3148 46.4541 90.2613 46.6583 90.2414 46.8792H93.4128Z" fill="white"/>
<path d="M97.6782 50.0003C97.4238 50.0003 97.1878 49.9585 96.9706 49.8749C96.753 49.7913 96.5656 49.676 96.4086 49.5286C96.2513 49.3815 96.1277 49.2075 96.0373 49.0068C95.947 48.806 95.9019 48.5887 95.9019 48.3543C95.9019 48.1068 95.9554 47.8827 96.0624 47.682C96.1693 47.4813 96.3217 47.3072 96.5192 47.16C96.7164 47.0131 96.9507 46.8991 97.2217 46.8189C97.4927 46.7385 97.7921 46.6985 98.12 46.6985C98.3674 46.6985 98.6118 46.7202 98.8527 46.7637C99.0935 46.8073 99.3109 46.8657 99.5051 46.9392V46.578C99.5051 46.1899 99.3947 45.8871 99.174 45.6697C98.9533 45.4523 98.6353 45.3436 98.2205 45.3436C97.9395 45.3436 97.6635 45.3954 97.3926 45.4992C97.1216 45.603 96.8421 45.7518 96.5545 45.9457L96.2133 45.2431C96.8891 44.7883 97.5915 44.5608 98.3209 44.5608C99.0434 44.5608 99.6056 44.7449 100.007 45.1127C100.408 45.4808 100.609 46.0094 100.609 46.6985V48.5952C100.609 48.8295 100.706 48.9499 100.9 48.9566V49.8999C100.793 49.92 100.701 49.9333 100.624 49.94C100.547 49.9465 100.472 49.95 100.398 49.95C100.184 49.95 100.019 49.8966 99.9015 49.7895C99.7844 49.6826 99.7124 49.5452 99.6856 49.3781L99.6555 49.0469C99.4212 49.3547 99.1318 49.5906 98.7874 49.7545C98.4423 49.9184 98.0728 50.0003 97.6782 50.0003ZM97.9792 49.1875C98.2467 49.1875 98.4993 49.139 98.7369 49.0419C98.9743 48.9451 99.1599 48.8094 99.2938 48.6355C99.4343 48.5151 99.5045 48.388 99.5045 48.254V47.5616C99.3172 47.4881 99.118 47.4312 98.9074 47.391C98.6966 47.3508 98.4909 47.3306 98.2902 47.3306C97.8953 47.3306 97.5725 47.416 97.3215 47.5867C97.0706 47.7574 96.9452 47.9831 96.9452 48.264C96.9452 48.5251 97.042 48.7442 97.2362 48.9214C97.4305 49.0988 97.6782 49.1875 97.9792 49.1875Z" fill="white"/>
<path d="M105.697 49.6288C105.557 49.6957 105.362 49.771 105.115 49.8547C104.867 49.9382 104.603 49.9801 104.322 49.9801C104.148 49.9801 103.984 49.9566 103.83 49.9098C103.676 49.8631 103.541 49.7928 103.424 49.6992C103.307 49.6055 103.215 49.4832 103.148 49.3328C103.081 49.1823 103.048 49.0001 103.048 48.7859V45.504H102.355V44.6508H103.048V42.9246H104.152V44.6508H105.296V45.504H104.152V48.4345C104.165 48.6219 104.223 48.7575 104.327 48.841C104.431 48.9247 104.56 48.9664 104.714 48.9664C104.867 48.9664 105.015 48.9398 105.155 48.8862C105.296 48.8326 105.399 48.7892 105.466 48.7557L105.697 49.6288Z" fill="white"/>
<path d="M109.24 50.0001C108.818 50.0001 108.398 49.9315 107.98 49.7945C107.562 49.6575 107.203 49.4618 106.901 49.2074L107.343 48.5048C107.657 48.7323 107.968 48.9047 108.276 49.0216C108.584 49.1388 108.899 49.1971 109.22 49.1971C109.548 49.1971 109.807 49.1337 109.998 49.0065C110.188 48.8795 110.284 48.6988 110.284 48.4646C110.284 48.2437 110.177 48.0831 109.962 47.9828C109.748 47.8824 109.414 47.772 108.959 47.6516C108.631 47.5647 108.35 47.4812 108.116 47.4008C107.881 47.3205 107.691 47.2269 107.544 47.1198C107.396 47.0129 107.289 46.8889 107.222 46.7486C107.156 46.608 107.122 46.4374 107.122 46.2367C107.122 45.969 107.174 45.7316 107.278 45.5242C107.381 45.3169 107.525 45.1413 107.709 44.9973C107.893 44.8535 108.109 44.7449 108.357 44.6711C108.604 44.5976 108.872 44.5608 109.159 44.5608C109.554 44.5608 109.922 44.621 110.263 44.7415C110.605 44.8619 110.909 45.0359 111.177 45.2633L110.705 45.9257C110.217 45.5377 109.698 45.3436 109.149 45.3436C108.868 45.3436 108.633 45.4022 108.442 45.5192C108.251 45.6362 108.156 45.822 108.156 46.0761C108.156 46.1832 108.176 46.2736 108.216 46.3471C108.256 46.4208 108.322 46.4844 108.412 46.5378C108.502 46.5915 108.619 46.6399 108.763 46.6834C108.907 46.7269 109.086 46.7755 109.3 46.8289C109.655 46.916 109.961 47.0031 110.218 47.09C110.476 47.177 110.688 47.2791 110.856 47.3961C111.023 47.5133 111.147 47.6505 111.227 47.8075C111.307 47.9648 111.347 48.1538 111.347 48.3745C111.347 48.8763 111.158 49.2727 110.78 49.5637C110.402 49.8547 109.889 50.0001 109.24 50.0001Z" fill="white"/>
<path d="M121.374 49.8996L120.721 49.2171C120.427 49.4715 120.104 49.6655 119.753 49.7993C119.401 49.9331 119.035 49.9999 118.654 49.9999C118.306 49.9999 117.988 49.9463 117.7 49.8395C117.413 49.7326 117.165 49.587 116.958 49.4029C116.75 49.2189 116.59 49.0014 116.476 48.7504C116.362 48.4996 116.305 48.2336 116.305 47.9527C116.305 47.7253 116.341 47.5144 116.411 47.3203C116.481 47.1264 116.576 46.9456 116.697 46.7784C116.817 46.6113 116.958 46.4572 117.118 46.3166C117.279 46.176 117.446 46.0456 117.62 45.9252C117.466 45.7581 117.337 45.6041 117.234 45.4635C117.13 45.323 117.046 45.191 116.983 45.0671C116.919 44.9433 116.873 44.8229 116.842 44.7059C116.812 44.5888 116.797 44.4668 116.797 44.3396C116.797 44.0987 116.846 43.8763 116.943 43.6722C117.04 43.4681 117.172 43.2925 117.339 43.1453C117.506 42.9983 117.706 42.8843 117.936 42.804C118.167 42.7238 118.416 42.6836 118.684 42.6836C118.925 42.6836 119.156 42.7172 119.377 42.784C119.598 42.851 119.791 42.9481 119.959 43.075C120.126 43.2022 120.258 43.361 120.355 43.5518C120.452 43.7424 120.501 43.9581 120.501 44.1991C120.501 44.3998 120.466 44.5839 120.395 44.751C120.325 44.9184 120.23 45.0773 120.109 45.2279C119.989 45.3784 119.847 45.5223 119.683 45.6593C119.519 45.7966 119.343 45.9288 119.156 46.0559L120.762 47.7419C120.875 47.5078 120.964 47.2551 121.028 46.9841C121.091 46.7132 121.123 46.4238 121.123 46.1161H122.026C122.019 46.5712 121.962 46.9909 121.856 47.3756C121.749 47.7604 121.598 48.1066 121.404 48.4143L122.829 49.8997L121.374 49.8996ZM118.774 49.1268C119.022 49.1268 119.261 49.08 119.492 48.9862C119.723 48.8925 119.935 48.7589 120.129 48.5847L118.282 46.6276C118.008 46.8217 117.787 47.0259 117.62 47.2399C117.453 47.4542 117.369 47.695 117.369 47.9624C117.369 48.1366 117.406 48.2953 117.48 48.4392C117.553 48.5832 117.655 48.7051 117.786 48.8054C117.916 48.9059 118.065 48.9845 118.232 49.0413C118.399 49.0983 118.58 49.1268 118.774 49.1268ZM117.811 44.3092C117.811 44.3762 117.821 44.4416 117.841 44.505C117.861 44.5686 117.896 44.6405 117.946 44.7208C117.997 44.8012 118.067 44.8914 118.157 44.9918C118.247 45.0922 118.359 45.2161 118.493 45.3631C118.801 45.1692 119.044 44.9835 119.221 44.8061C119.398 44.6289 119.487 44.4332 119.487 44.219C119.487 44.0049 119.412 43.8326 119.261 43.7022C119.111 43.5717 118.918 43.5065 118.684 43.5065C118.43 43.5065 118.221 43.5851 118.057 43.7423C117.893 43.8995 117.811 44.0885 117.811 44.3092Z" fill="white"/>
<path d="M130.577 49.9999C130.175 49.9999 129.812 49.9046 129.488 49.7139C129.163 49.5233 128.907 49.2673 128.72 48.9461V49.8995H127.746V42.573H128.85V45.6441C129.058 45.3096 129.317 45.0453 129.628 44.8513C129.939 44.6572 130.306 44.5603 130.727 44.5603C131.075 44.5603 131.393 44.6355 131.681 44.7861C131.968 44.9366 132.214 45.1373 132.418 45.3882C132.622 45.6391 132.78 45.9301 132.89 46.2613C133 46.5924 133.056 46.9386 133.056 47.3001C133.056 47.675 132.992 48.0262 132.865 48.3539C132.738 48.6818 132.564 48.9679 132.343 49.2121C132.122 49.4564 131.86 49.6487 131.555 49.7893C131.251 49.9297 130.925 49.9999 130.577 49.9999ZM130.286 49.0566C130.527 49.0566 130.747 49.0079 130.948 48.911C131.149 48.814 131.321 48.6852 131.465 48.5246C131.609 48.3639 131.721 48.1783 131.801 47.9675C131.882 47.7569 131.922 47.5344 131.922 47.3001C131.922 47.066 131.883 46.8402 131.806 46.6228C131.729 46.4054 131.622 46.2147 131.485 46.0506C131.348 45.8866 131.184 45.7544 130.993 45.6542C130.803 45.5539 130.593 45.5036 130.366 45.5036C130.025 45.5036 129.722 45.6141 129.458 45.8348C129.193 46.0557 128.991 46.3232 128.851 46.6377V48.0227C128.891 48.1766 128.961 48.3154 129.061 48.4393C129.162 48.5631 129.279 48.6719 129.413 48.7654C129.546 48.8592 129.69 48.931 129.844 48.9813C129.998 49.0315 130.145 49.0566 130.286 49.0566Z" fill="white"/>
<path d="M137.301 50.0003C136.893 50.0003 136.521 49.9283 136.187 49.7844C135.852 49.6406 135.566 49.4449 135.329 49.1973C135.091 48.9499 134.907 48.6621 134.777 48.3342C134.646 48.0064 134.581 47.6584 134.581 47.2905C134.581 46.9225 134.646 46.5729 134.777 46.2416C134.907 45.9105 135.091 45.6194 135.329 45.3686C135.566 45.1176 135.852 44.9203 136.187 44.7763C136.521 44.6325 136.896 44.5605 137.311 44.5605C137.719 44.5605 138.089 44.6342 138.42 44.7814C138.751 44.9285 139.034 45.1242 139.268 45.3686C139.502 45.6129 139.681 45.8971 139.805 46.2215C139.929 46.5463 139.991 46.8857 139.991 47.2403C139.991 47.3205 139.987 47.3959 139.981 47.4662C139.974 47.5365 139.967 47.5952 139.961 47.6417H135.755C135.776 47.8759 135.831 48.0868 135.921 48.274C136.011 48.4612 136.128 48.6236 136.272 48.7607C136.416 48.8979 136.58 49.0032 136.764 49.0768C136.948 49.1505 137.141 49.1872 137.341 49.1872C137.488 49.1872 137.634 49.1689 137.778 49.1321C137.922 49.0954 138.054 49.0418 138.174 48.9715C138.295 48.9012 138.402 48.816 138.495 48.7156C138.589 48.6151 138.663 48.5048 138.716 48.3844L139.66 48.6553C139.479 49.0502 139.179 49.373 138.761 49.624C138.343 49.8749 137.856 50.0003 137.301 50.0003ZM138.897 46.8792C138.876 46.6583 138.821 46.4543 138.731 46.2669C138.641 46.0797 138.525 45.9206 138.385 45.7902C138.244 45.6597 138.08 45.5578 137.893 45.484C137.706 45.4105 137.508 45.3736 137.301 45.3736C137.093 45.3736 136.898 45.4105 136.714 45.484C136.529 45.5578 136.367 45.6595 136.227 45.7902C136.086 45.9206 135.972 46.0797 135.886 46.2669C135.799 46.4541 135.745 46.6583 135.725 46.8792H138.897Z" fill="white"/>
<path d="M144.145 50.0003C143.737 50.0003 143.366 49.9283 143.031 49.7844C142.697 49.6406 142.411 49.4449 142.173 49.1973C141.936 48.9499 141.752 48.6621 141.621 48.3342C141.491 48.0064 141.426 47.6584 141.426 47.2905C141.426 46.9225 141.491 46.5729 141.621 46.2416C141.752 45.9105 141.936 45.6194 142.173 45.3686C142.411 45.1176 142.697 44.9203 143.031 44.7763C143.366 44.6325 143.741 44.5605 144.155 44.5605C144.563 44.5605 144.933 44.6342 145.264 44.7814C145.596 44.9285 145.878 45.1242 146.113 45.3686C146.347 45.6129 146.526 45.8971 146.65 46.2215C146.773 46.5463 146.835 46.8857 146.835 47.2403C146.835 47.3205 146.832 47.3959 146.825 47.4662C146.819 47.5365 146.812 47.5952 146.805 47.6417H142.6C142.62 47.8759 142.675 48.0868 142.766 48.274C142.856 48.4612 142.973 48.6236 143.117 48.7607C143.261 48.8979 143.425 49.0032 143.609 49.0768C143.793 49.1505 143.985 49.1872 144.186 49.1872C144.333 49.1872 144.478 49.1689 144.622 49.1321C144.766 49.0954 144.898 49.0418 145.019 48.9715C145.139 48.9012 145.246 48.816 145.34 48.7156C145.433 48.6151 145.507 48.5048 145.561 48.3844L146.504 48.6553C146.323 49.0502 146.024 49.373 145.606 49.624C145.187 49.8749 144.701 50.0003 144.145 50.0003ZM145.741 46.8792C145.721 46.6583 145.666 46.4543 145.576 46.2669C145.485 46.0797 145.37 45.9206 145.229 45.7902C145.089 45.6597 144.925 45.5578 144.737 45.484C144.55 45.4105 144.353 45.3736 144.145 45.3736C143.938 45.3736 143.742 45.4105 143.558 45.484C143.374 45.5578 143.212 45.6595 143.071 45.7902C142.931 45.9206 142.817 46.0797 142.73 46.2669C142.643 46.4541 142.59 46.6583 142.57 46.8792H145.741Z" fill="white"/>
<path d="M151.562 45.6042C151.134 45.6177 150.754 45.7163 150.423 45.9003C150.092 46.0844 149.856 46.3468 149.715 46.6881V49.8998H148.611V44.6507H149.635V45.825C149.816 45.4637 150.052 45.1743 150.342 44.9569C150.633 44.7395 150.946 44.6206 151.281 44.6006C151.348 44.6006 151.403 44.6006 151.446 44.6006C151.49 44.6006 151.528 44.604 151.562 44.6106V45.6042Z" fill="white"/>
<path d="M155.145 50.0001C154.724 50.0001 154.304 49.9315 153.886 49.7945C153.468 49.6575 153.108 49.4618 152.807 49.2074L153.248 48.5048C153.563 48.7323 153.874 48.9047 154.182 49.0216C154.489 49.1388 154.804 49.1971 155.125 49.1971C155.453 49.1971 155.712 49.1337 155.903 49.0065C156.094 48.8795 156.189 48.6988 156.189 48.4646C156.189 48.2437 156.082 48.0831 155.868 47.9828C155.653 47.8824 155.319 47.772 154.864 47.6516C154.536 47.5647 154.255 47.4812 154.021 47.4008C153.787 47.3205 153.596 47.2269 153.449 47.1198C153.302 47.0129 153.194 46.8889 153.128 46.7486C153.061 46.608 153.027 46.4374 153.027 46.2367C153.027 45.969 153.079 45.7316 153.183 45.5242C153.286 45.3169 153.43 45.1413 153.614 44.9973C153.798 44.8535 154.014 44.7449 154.262 44.6711C154.509 44.5976 154.777 44.5608 155.065 44.5608C155.459 44.5608 155.827 44.621 156.169 44.7415C156.51 44.8619 156.814 45.0359 157.082 45.2633L156.61 45.9257C156.122 45.5377 155.603 45.3436 155.055 45.3436C154.774 45.3436 154.538 45.4022 154.347 45.5192C154.156 45.6362 154.061 45.822 154.061 46.0761C154.061 46.1832 154.081 46.2736 154.121 46.3471C154.162 46.4208 154.227 46.4844 154.317 46.5378C154.407 46.5915 154.524 46.6399 154.668 46.6834C154.812 46.7269 154.991 46.7755 155.205 46.8289C155.56 46.916 155.866 47.0031 156.123 47.09C156.381 47.177 156.594 47.2791 156.761 47.3961C156.928 47.5133 157.052 47.6505 157.132 47.8075C157.212 47.9648 157.253 48.1538 157.253 48.3745C157.253 48.8763 157.063 49.2727 156.686 49.5637C156.308 49.8547 155.794 50.0001 155.145 50.0001Z" fill="white"/>
</svg>
